<svg xmlns="http://www.w3.org/2000/svg" viewBox="0 0 128 128" role="img" aria-label="AI小译 图标方案 3">
  <defs>
    <linearGradient id="g3" x1="20" y1="18" x2="112" y2="112" gradientUnits="userSpaceOnUse">
      <stop offset="0" stop-color="#F0FDF4"/>
      <stop offset="1" stop-color="#E0F2FE"/>
    </linearGradient>
  </defs>
  <rect x="1.5" y="1.5" width="125" height="125" rx="34" fill="url(#g3)"/>
  <g transform="translate(-20 -15) scale(1.34)">
    <path d="M35 41c7-7 18-9 29-3v55c-11-6-22-4-29 3V41z" fill="#fff" stroke="#93C5FD" stroke-width="4" stroke-linejoin="round"/>
    <path d="M64 38c11-6 22-4 29 3v55c-7-7-18-9-29-3V38z" fill="#fff" stroke="#93C5FD" stroke-width="4" stroke-linejoin="round"/>
    <path d="M45 55h10M45 68h10M74 55h10M74 68h10" stroke="#64748B" stroke-width="4" stroke-linecap="round"/>
    <circle cx="50" cy="29" r="4" fill="#334155"/>
    <circle cx="78" cy="29" r="4" fill="#334155"/>
    <path d="M56 31c5 5 11 5 16 0" fill="none" stroke="#22C55E" stroke-width="4" stroke-linecap="round"/>
    <path d="M98 28l4 8 8 4-8 4-4 8-4-8-8-4 8-4 4-8z" fill="#F59E0B"/>
  </g>
</svg>
